<svg width="144" height="41" viewBox="0 0 144 41" fill="none" xmlns="http://www.w3.org/2000/svg">
<path d="M75.5424 10.238C75.5424 11.7064 74.2434 12.8889 72.6312 12.8889C71.0191 12.8889 69.7209 11.7064 69.7209 10.238C69.7209 8.76954 70.9748 7.58711 72.6312 7.58711C74.289 7.62786 75.5424 8.81069 75.5424 10.238ZM63.5415 15.5813V16.234C63.5415 16.234 62.1539 14.6018 59.1984 14.6018C54.318 14.6018 50.5112 17.9873 50.5112 22.6774C50.5112 27.3272 54.2733 30.753 59.1984 30.753C62.1986 30.753 63.5415 29.0809 63.5415 29.0809V29.774C63.5415 30.1003 63.8108 30.3444 64.1687 30.3444H67.7952V15.0084H64.1687C63.8108 15.0096 63.5415 15.2957 63.5415 15.5813ZM63.5415 25.4102C62.8705 26.3078 61.5267 27.0828 59.915 27.0828C57.0494 27.0828 54.8548 25.4513 54.8548 22.6774C54.8548 19.9039 57.0494 18.2725 59.915 18.2725C61.4824 18.2725 62.9152 19.0882 63.5415 19.9447V25.4102ZM70.4823 15.0096H74.7806V30.3456H70.4823V15.0096ZM134.694 14.6014C131.739 14.6014 130.35 16.2336 130.35 16.2336V7.62786H126.052V30.3456H129.679C130.037 30.3456 130.305 30.06 130.305 29.7744V29.0813C130.305 29.0813 131.694 30.7535 134.649 30.7535C139.53 30.7535 143.336 27.3284 143.336 22.6786C143.336 18.0288 139.53 14.6014 134.694 14.6014ZM133.978 27.0416C132.32 27.0416 131.022 26.2674 130.35 25.3694V19.9039C131.022 19.0882 132.455 18.2317 133.978 18.2317C136.843 18.2317 139.037 19.8632 139.037 22.6367C139.037 25.4102 136.844 27.0416 133.978 27.0416ZM123.813 21.2505V30.3864H119.514V21.6987C119.514 19.1705 118.618 18.1502 116.202 18.1502C114.904 18.1502 113.56 18.7622 112.708 19.6598V30.346H108.41V15.01H111.812C112.171 15.01 112.44 15.2957 112.44 15.5813V16.234C113.693 15.0508 115.35 14.6018 117.006 14.6018C118.887 14.6018 120.455 15.0919 121.709 16.0706C123.23 17.2127 123.813 18.6807 123.813 21.2505ZM97.9756 14.6014C95.021 14.6014 93.6325 16.2336 93.6325 16.2336V7.62786H89.3341V30.3456H92.9606C93.3189 30.3456 93.5877 30.06 93.5877 29.7744V29.0813C93.5877 29.0813 94.9762 30.7535 97.9308 30.7535C102.812 30.7535 106.618 27.3284 106.618 22.6786C106.663 18.0284 102.857 14.6014 97.9756 14.6014ZM97.2589 27.0416C95.6025 27.0416 94.3043 26.2674 93.6325 25.3694V19.9039C94.3043 19.0882 95.7371 18.2317 97.2589 18.2317C100.125 18.2317 102.319 19.8632 102.319 22.6367C102.319 25.4102 100.125 27.0416 97.2589 27.0416ZM85.6172 14.6014C86.9153 14.6014 87.5872 14.8059 87.5872 14.8059V18.4355C87.5872 18.4355 84.005 17.3341 81.7666 19.6594V30.3859H77.4673V15.0096H81.0947C81.453 15.0096 81.7209 15.2952 81.7209 15.5809V16.2336C82.5279 15.3767 84.2743 14.6014 85.6172 14.6014ZM40.9742 28.9587C40.7505 28.4693 40.5264 27.9392 40.3027 27.4902C39.944 26.7564 39.5857 26.0625 39.273 25.4102L39.2283 25.3694C36.1381 19.2512 32.8252 13.0522 29.332 6.9348L29.1978 6.6895C28.8304 6.05489 28.4723 5.41582 28.1238 4.77246C27.6755 4.03783 27.2282 3.26367 26.5116 2.52904C25.0788 0.897611 23.0188 0 20.8251 0C18.5858 0 16.571 0.897616 15.0939 2.44715C14.4221 3.18096 13.9291 3.95594 13.4818 4.69057C13.1323 5.33352 12.7743 5.97258 12.4077 6.60761L12.2731 6.85289C8.82508 12.9703 5.46697 19.1697 2.37727 25.2875L2.33209 25.3686C2.01896 26.0222 1.6602 26.7152 1.30189 27.4486C1.07823 27.8977 0.854562 28.387 0.630897 28.9171C0.0484745 30.4259 -0.130913 31.8536 0.0936461 33.3224C0.586156 36.3816 2.82459 38.9501 5.91474 40.093C7.07914 40.542 8.28827 40.7458 9.54169 40.7458C9.9 40.7458 10.3473 40.705 10.7061 40.6639C12.1841 40.5009 13.7063 40.0527 15.1843 39.2777C17.0201 38.3393 18.7665 36.994 20.7366 35.0362C22.7066 36.994 24.4977 38.3393 26.2888 39.2777C27.7672 40.0527 29.289 40.5009 30.7666 40.6639C31.1249 40.7054 31.5731 40.7458 31.9314 40.7458C33.1853 40.7458 34.4387 40.542 35.5579 40.093C38.6928 38.9501 40.8865 36.3408 41.3795 33.3224C41.7351 31.8951 41.5561 30.4683 40.9742 28.9587ZM20.78 31.0794C18.3617 28.3059 16.7942 25.6958 16.2574 23.4939C16.0338 22.5556 15.9886 21.7399 16.1233 21.0056C16.2123 20.3529 16.4816 19.7817 16.8399 19.2923C17.6907 18.1918 19.1235 17.4979 20.7804 17.4979C22.4378 17.4979 23.9153 18.1506 24.7214 19.2923C25.0797 19.7817 25.3481 20.3533 25.4384 21.0056C25.5722 21.7403 25.5275 22.5963 25.3038 23.4939C24.7648 25.6551 23.1973 28.2656 20.78 31.0794ZM38.6454 32.9965C38.3323 35.1173 36.7648 36.9532 34.5711 37.7689C33.4966 38.1764 32.3318 38.299 31.1683 38.1764C30.0491 38.0537 28.9289 37.7274 27.7654 37.1162C26.1533 36.2997 24.5415 35.0362 22.6605 33.1594C25.6156 29.8563 27.4067 26.8375 28.0786 24.1463C28.3922 22.8815 28.4373 21.7399 28.3022 20.6789C28.1238 19.6594 27.7203 18.7211 27.0935 17.9054C25.7046 16.0694 23.3758 15.0096 20.7795 15.0096C18.1832 15.0096 15.8544 16.111 14.4663 17.9054C13.8396 18.7211 13.4361 19.6594 13.2572 20.6789C13.0783 21.7399 13.1226 22.9223 13.4809 24.1463C14.1523 26.8375 15.9882 29.8966 18.8985 33.2002C17.0626 35.0765 15.4057 36.3412 13.7936 37.1569C12.6292 37.7689 11.5104 38.0953 10.3912 38.2171C9.18249 38.3398 8.01765 38.1764 6.98789 37.8097C4.79419 36.994 3.22675 35.158 2.91362 33.0372C2.77942 32.0178 2.86844 30.9983 3.31666 29.8563C3.45041 29.448 3.67497 29.0406 3.89863 28.5512C4.21221 27.8985 4.56963 27.2046 4.92839 26.5115L4.97357 26.4304C8.06283 20.3529 11.3762 14.1536 14.8242 8.11761L14.9584 7.87233C15.3172 7.26116 15.6755 6.60843 16.0333 5.99644C16.3917 5.3437 16.7942 4.73171 17.2872 4.20121C18.2275 3.22333 19.4809 2.69243 20.8694 2.69243C22.2579 2.69243 23.5113 3.22333 24.4516 4.20121C24.9446 4.73293 25.3472 5.34492 25.7055 5.99644C26.0642 6.60843 26.4226 7.26116 26.78 7.87233L26.9146 8.11761C30.3101 14.1786 33.5794 20.2976 36.721 26.4712V26.5119C37.0797 27.1655 37.3929 27.8989 37.7512 28.5524C37.9748 29.041 38.1989 29.4484 38.3331 29.8567C38.6906 30.916 38.8248 31.9363 38.6454 32.9965Z" fill="#A6A6A6"/>
</svg>
