<svg width="132" height="43" viewBox="0 0 132 43" fill="none" xmlns="http://www.w3.org/2000/svg">
<path fill-rule="evenodd" clip-rule="evenodd" d="M81.8932 33.6276C74.2225 39.7393 63.1042 43.0001 53.5316 43.0001C40.1093 43.0001 28.0257 37.6337 18.8841 28.7084C18.1658 28.0065 18.8094 27.05 19.6713 27.5966C29.5369 33.8015 41.7354 37.5343 54.336 37.5343C62.8342 37.5343 72.1827 35.6338 80.7785 31.6897C82.0771 31.0934 83.163 32.609 81.8932 33.6276" fill="#FF9900"/>
<path fill-rule="evenodd" clip-rule="evenodd" d="M85.0765 29.6837C84.0997 28.3297 78.5952 29.044 76.1244 29.3607C75.3717 29.4601 75.2568 28.7521 75.9348 28.2427C80.3189 24.9074 87.5127 25.8701 88.3516 26.9881C89.1905 28.1123 88.1333 35.9072 84.0135 39.6277C83.3815 40.1991 82.7781 39.8947 83.0597 39.137C83.9848 36.6401 86.059 31.0439 85.0765 29.6837" fill="#FF9900"/>
<path fill-rule="evenodd" clip-rule="evenodd" d="M76.2984 4.69486V1.45267C76.2984 0.961999 76.6431 0.632812 77.0568 0.632812H90.4849C90.9158 0.632812 91.2606 0.968211 91.2606 1.45267V4.22903C91.2549 4.69486 90.8929 5.30354 90.2493 6.26626L83.2911 17.0052C85.8767 16.9369 88.606 17.353 90.9503 18.7816C91.4789 19.1046 91.6226 19.5766 91.6628 20.0424V23.502C91.6628 23.9741 91.1802 24.5268 90.6745 24.2411C86.5432 21.8996 81.0559 21.6449 76.488 24.266C76.0226 24.5393 75.5342 23.9927 75.5342 23.5206V20.235C75.5342 19.707 75.5399 18.8064 76.0283 18.0052L84.0898 5.50851H77.0741C76.6431 5.50851 76.2984 5.17933 76.2984 4.69486" fill="black"/>
<path fill-rule="evenodd" clip-rule="evenodd" d="M27.318 24.9242H23.2327C22.8419 24.8932 22.5317 24.5764 22.5029 24.1727V1.50846C22.5029 1.05505 22.8534 0.694807 23.2901 0.694807H27.0996C27.4961 0.713428 27.8121 1.04263 27.8408 1.45256V4.41525H27.9155C28.9096 1.55194 30.777 0.216553 33.2937 0.216553C35.8506 0.216553 37.4479 1.55194 38.5971 4.41525C39.5854 1.55194 41.832 0.216553 44.2395 0.216553C45.9518 0.216553 47.8249 0.980516 48.9684 2.69477C50.2612 4.60158 49.9969 7.37172 49.9969 9.80025L49.9911 24.1044C49.9911 24.5578 49.6406 24.9242 49.204 24.9242H45.1244C44.7164 24.8932 44.3889 24.5391 44.3889 24.1044V12.0921C44.3889 11.1356 44.4694 8.75058 44.274 7.84376C43.9695 6.32205 43.0559 5.89348 41.8722 5.89348C40.8839 5.89348 39.8497 6.60775 39.4302 7.7506C39.0108 8.89344 39.051 10.8064 39.051 12.0921V24.1044C39.051 24.5578 38.7005 24.9242 38.2638 24.9242H34.1843C33.7706 24.8932 33.4488 24.5391 33.4488 24.1044L33.4431 12.0921C33.4431 9.56423 33.828 5.84379 30.9264 5.84379C27.9902 5.84379 28.1051 9.47106 28.1051 12.0921V24.1044C28.1051 24.5578 27.7546 24.9242 27.318 24.9242" fill="black"/>
<path fill-rule="evenodd" clip-rule="evenodd" d="M102.822 0.216553C108.884 0.216553 112.165 5.84379 112.165 12.999C112.165 19.9119 108.539 25.3963 102.822 25.3963C96.8691 25.3963 93.6284 19.769 93.6284 12.7567C93.6284 5.70094 96.9093 0.216553 102.822 0.216553M102.856 4.84381C99.8454 4.84381 99.6558 9.27852 99.6558 12.0425C99.6558 14.8126 99.6156 20.7255 102.822 20.7255C105.988 20.7255 106.137 15.9554 106.137 13.0486C106.137 11.1356 106.062 8.84996 105.528 7.03632C105.068 5.45871 104.155 4.84381 102.856 4.84381" fill="black"/>
<path fill-rule="evenodd" clip-rule="evenodd" d="M120.028 24.9242H115.959C115.552 24.8932 115.224 24.5391 115.224 24.1044L115.218 1.43392C115.253 1.01778 115.592 0.694807 116.005 0.694807H119.792C120.148 0.713428 120.441 0.974306 120.522 1.32834V4.79412H120.596C121.74 1.69479 123.343 0.216553 126.164 0.216553C127.997 0.216553 129.784 0.930828 130.933 2.88732C132.002 4.70095 132.002 7.7506 132.002 9.9431V24.21C131.956 24.6075 131.617 24.9242 131.215 24.9242H127.118C126.744 24.8932 126.434 24.595 126.394 24.21V11.8996C126.394 9.42138 126.658 5.7941 123.837 5.7941C122.843 5.7941 121.929 6.51459 121.476 7.60774C120.901 8.99281 120.826 10.3717 120.826 11.8996V24.1044C120.82 24.5578 120.464 24.9242 120.028 24.9242" fill="black"/>
<path fill-rule="evenodd" clip-rule="evenodd" d="M65.5964 14.0992C65.5964 15.8196 65.6366 17.2544 64.8322 18.7823C64.1829 20.0245 63.1487 20.7885 62.0053 20.7885C60.4366 20.7885 59.5173 19.4966 59.5173 17.5898C59.5173 13.8259 62.6373 13.1427 65.5964 13.1427V14.0992ZM69.7162 24.863C69.4461 25.1238 69.0554 25.1425 68.7509 24.9686C67.3949 23.7512 67.1478 23.186 66.4066 22.0245C64.1657 24.4965 62.5741 25.2356 59.6724 25.2356C56.2307 25.2356 53.5588 22.9437 53.5588 18.3538C53.5588 14.77 55.3515 12.329 57.9142 11.1365C60.1321 10.0806 63.2291 9.89426 65.5964 9.60234V9.03092C65.5964 7.98124 65.6711 6.73902 65.0965 5.83221C64.6024 5.01856 63.6486 4.68316 62.8039 4.68316C61.2468 4.68316 59.862 5.5465 59.523 7.33529C59.4541 7.7328 59.184 8.1241 58.8106 8.14273L54.8517 7.68311C54.5184 7.60237 54.1449 7.31044 54.2426 6.75766C55.1504 1.5652 59.4943 0 63.3785 0C65.3666 0 67.9637 0.571421 69.5323 2.19872C71.5204 4.2049 71.3308 6.88188 71.3308 9.79488V16.6768C71.3308 18.7451 72.1237 19.6519 72.8707 20.7699C73.1292 21.1674 73.1867 21.6456 72.8534 21.9438C72.0203 22.6953 70.5378 24.0928 69.7219 24.8754L69.7162 24.863Z" fill="black"/>
<path fill-rule="evenodd" clip-rule="evenodd" d="M12.0376 14.0992C12.0376 15.8196 12.0778 17.2544 11.2734 18.7823C10.6241 20.0245 9.59559 20.7885 8.44641 20.7885C6.87779 20.7885 5.9642 19.4966 5.9642 17.5898C5.9642 13.8259 9.0842 13.1427 12.0376 13.1427V14.0992M16.1574 24.863C15.8873 25.1238 15.4966 25.1425 15.1921 24.9686C13.836 23.7512 13.5947 23.186 12.8477 22.0245C10.6069 24.4965 9.021 25.2356 6.11359 25.2356C2.67757 25.2356 0 22.9437 0 18.3538C0 14.77 1.79845 12.329 4.35536 11.1365C6.57326 10.0806 9.67028 9.89426 12.0376 9.60234V9.03092C12.0376 7.98124 12.1123 6.73902 11.5434 5.83221C11.0435 5.01856 10.0897 4.68316 9.25083 4.68316C7.69371 4.68316 6.30321 5.5465 5.9642 7.33529C5.89525 7.7328 5.6252 8.1241 5.25746 8.14273L1.29282 7.68311C0.959558 7.60237 0.591823 7.31044 0.683757 6.75766C1.59735 1.5652 5.93547 0 9.81968 0C11.8077 0 14.4049 0.571421 15.9735 2.19872C17.9616 4.2049 17.7719 6.88188 17.7719 9.79488V16.6768C17.7719 18.7451 18.5649 19.6519 19.3118 20.7699C19.5761 21.1674 19.6336 21.6456 19.3003 21.9438C18.4672 22.6953 16.9848 24.0928 16.1688 24.8754L16.1574 24.8629" fill="black"/>
</svg>
