<svg width="150" height="70" viewBox="0 0 150 70" fill="none" xmlns="http://www.w3.org/2000/svg">
<rect x="10" y="10" width="50" height="50" rx="25" fill="black"/>
<path d="M27.0475 37.246C27.0475 35.79 27.3335 34.4987 27.9055 33.372C28.4948 32.2453 29.2921 31.3787 30.2975 30.772C31.3028 30.1653 32.4208 29.862 33.6515 29.862C34.5875 29.862 35.4801 30.07 36.3295 30.486C37.1788 30.8847 37.8548 31.422 38.3575 32.098V25.26H42.0495V44.5H38.3575V42.368C37.9068 43.0787 37.2741 43.6507 36.4595 44.084C35.6448 44.5173 34.7001 44.734 33.6255 44.734C32.4121 44.734 31.3028 44.422 30.2975 43.798C29.2921 43.174 28.4948 42.2987 27.9055 41.172C27.3335 40.028 27.0475 38.7193 27.0475 37.246ZM38.3835 37.298C38.3835 36.414 38.2101 35.66 37.8635 35.036C37.5168 34.3947 37.0488 33.9093 36.4595 33.58C35.8701 33.2333 35.2375 33.06 34.5615 33.06C33.8855 33.06 33.2615 33.2247 32.6895 33.554C32.1175 33.8833 31.6495 34.3687 31.2855 35.01C30.9388 35.634 30.7655 36.3793 30.7655 37.246C30.7655 38.1127 30.9388 38.8753 31.2855 39.534C31.6495 40.1753 32.1175 40.6693 32.6895 41.016C33.2788 41.3627 33.9028 41.536 34.5615 41.536C35.2375 41.536 35.8701 41.3713 36.4595 41.042C37.0488 40.6953 37.5168 40.21 37.8635 39.586C38.2101 38.9447 38.3835 38.182 38.3835 37.298Z" fill="white"/>
<path d="M78.3275 26.352C80.2341 26.352 81.9068 26.7247 83.3455 27.47C84.8015 28.2153 85.9195 29.2813 86.6995 30.668C87.4968 32.0373 87.8955 33.632 87.8955 35.452C87.8955 37.272 87.4968 38.8667 86.6995 40.236C85.9195 41.588 84.8015 42.6367 83.3455 43.382C81.9068 44.1273 80.2341 44.5 78.3275 44.5H71.9835V26.352H78.3275ZM78.1975 41.406C80.1041 41.406 81.5775 40.886 82.6175 39.846C83.6575 38.806 84.1775 37.3413 84.1775 35.452C84.1775 33.5627 83.6575 32.0893 82.6175 31.032C81.5775 29.9573 80.1041 29.42 78.1975 29.42H75.6235V41.406H78.1975ZM104.01 36.986C104.01 37.506 103.976 37.974 103.906 38.39H93.3762C93.4628 39.43 93.8268 40.2447 94.4682 40.834C95.1095 41.4233 95.8982 41.718 96.8342 41.718C98.1862 41.718 99.1482 41.1373 99.7202 39.976H103.646C103.23 41.3627 102.433 42.5067 101.254 43.408C100.076 44.292 98.6282 44.734 96.9122 44.734C95.5255 44.734 94.2775 44.4307 93.1682 43.824C92.0762 43.2 91.2182 42.3247 90.5942 41.198C89.9875 40.0713 89.6842 38.7713 89.6842 37.298C89.6842 35.8073 89.9875 34.4987 90.5942 33.372C91.2008 32.2453 92.0502 31.3787 93.1422 30.772C94.2342 30.1653 95.4908 29.862 96.9122 29.862C98.2815 29.862 99.5035 30.1567 100.578 30.746C101.67 31.3353 102.511 32.176 103.1 33.268C103.707 34.3427 104.01 35.582 104.01 36.986ZM100.24 35.946C100.223 35.01 99.8848 34.2647 99.2262 33.71C98.5675 33.138 97.7615 32.852 96.8082 32.852C95.9068 32.852 95.1442 33.1293 94.5202 33.684C93.9135 34.2213 93.5408 34.9753 93.4022 35.946H100.24ZM110.307 25.26V44.5H106.667V25.26H110.307ZM118.141 33.086V40.054C118.141 40.5393 118.254 40.8947 118.479 41.12C118.722 41.328 119.121 41.432 119.675 41.432H121.365V44.5H119.077C116.009 44.5 114.475 43.0093 114.475 40.028V33.086H112.759V30.096H114.475V26.534H118.141V30.096H121.365V33.086H118.141ZM123.047 37.246C123.047 35.79 123.333 34.4987 123.905 33.372C124.495 32.2453 125.283 31.3787 126.271 30.772C127.277 30.1653 128.395 29.862 129.625 29.862C130.7 29.862 131.636 30.0787 132.433 30.512C133.248 30.9453 133.898 31.4913 134.383 32.15V30.096H138.049V44.5H134.383V42.394C133.915 43.07 133.265 43.6333 132.433 44.084C131.619 44.5173 130.674 44.734 129.599 44.734C128.386 44.734 127.277 44.422 126.271 43.798C125.283 43.174 124.495 42.2987 123.905 41.172C123.333 40.028 123.047 38.7193 123.047 37.246ZM134.383 37.298C134.383 36.414 134.21 35.66 133.863 35.036C133.517 34.3947 133.049 33.9093 132.459 33.58C131.87 33.2333 131.237 33.06 130.561 33.06C129.885 33.06 129.261 33.2247 128.689 33.554C128.117 33.8833 127.649 34.3687 127.285 35.01C126.939 35.634 126.765 36.3793 126.765 37.246C126.765 38.1127 126.939 38.8753 127.285 39.534C127.649 40.1753 128.117 40.6693 128.689 41.016C129.279 41.3627 129.903 41.536 130.561 41.536C131.237 41.536 131.87 41.3713 132.459 41.042C133.049 40.6953 133.517 40.21 133.863 39.586C134.21 38.9447 134.383 38.182 134.383 37.298Z" fill="black"/>
</svg>
