<svg width="138" height="43" viewBox="0 0 138 43" fill="none" xmlns="http://www.w3.org/2000/svg">
<path d="M29.3958 15.052H15.4396V19.5141H25.3298C24.8353 25.8205 20.0001 28.4977 15.4396 28.4977C9.61543 28.4977 4.50552 23.5002 4.50552 16.5394C4.50552 9.75704 9.34071 4.52156 15.4396 4.52156C20.11 4.52156 22.9122 7.73424 22.9122 7.73424L25.8243 4.46206C25.8243 4.46206 22.088 0 15.3297 0C6.70333 0.0594942 0 7.97222 0 16.4799C0 24.8686 6.26377 33.0193 15.5495 33.0193C23.6814 33.0193 29.6705 26.9509 29.6705 18.0267C29.6705 16.1229 29.3958 15.052 29.3958 15.052ZM40.8244 11.8393C35.1101 11.8393 30.9892 16.6584 30.9892 22.3698C30.9892 28.0812 34.9452 33.0193 40.8793 33.0193C46.209 33.0193 50.6046 28.5572 50.6046 22.4888C50.6596 15.409 45.5497 11.8393 40.8244 11.8393ZM40.8793 16.0039C43.6815 16.0039 46.3739 18.4432 46.3739 22.4293C46.3739 26.2964 43.7365 28.8547 40.8793 28.8547C37.7474 28.8547 35.2749 26.1774 35.2749 22.4293C35.2749 18.7407 37.7474 16.0039 40.8793 16.0039ZM62.1981 11.8393C56.4838 11.8393 52.3629 16.6584 52.3629 22.3698C52.3629 28.0812 56.319 33.0193 62.2531 33.0193C67.5828 33.0193 71.9784 28.5572 71.9784 22.4888C72.0333 15.409 66.9234 11.8393 62.1981 11.8393ZM62.2531 16.0039C65.0553 16.0039 67.7476 18.4432 67.7476 22.4293C67.7476 26.2964 65.1102 28.8547 62.2531 28.8547C59.1212 28.8547 56.6486 26.1774 56.6486 22.4293C56.7036 18.7407 59.1212 16.0039 62.2531 16.0039ZM83.1872 11.8393C77.9125 11.8393 73.7916 16.8369 73.7916 22.4293C73.7916 28.7952 78.5718 33.0193 83.0773 33.0193C85.8796 33.0193 87.3631 31.8294 88.462 30.461V32.5433C88.462 36.1725 86.429 38.3737 83.2971 38.3737C80.3301 38.3737 78.7916 35.994 78.2971 34.6256L74.5608 36.3509C75.8795 39.3851 78.5718 42.5978 83.3521 42.5978C88.5719 42.5978 92.5829 39.0282 92.5829 31.5319V12.4938H88.462V14.2786C87.1982 12.7912 85.4949 11.8393 83.1872 11.8393ZM83.5719 16.0039C86.1543 16.0039 88.7917 18.3837 88.7917 22.4293C88.7917 26.5939 86.1543 28.8547 83.5169 28.8547C80.7147 28.8547 78.1323 26.4154 78.1323 22.4888C78.0773 18.3837 80.8246 16.0039 83.5719 16.0039ZM110.77 11.7798C105.825 11.7798 101.649 16.0634 101.649 22.3698C101.649 29.0332 106.264 33.0193 111.264 33.0193C115.385 33.0193 117.968 30.58 119.451 28.3787L116.045 25.9395C115.165 27.4268 113.682 28.8547 111.264 28.8547C108.517 28.8547 107.253 27.2483 106.484 25.642L119.616 19.7521L118.957 18.0267C117.638 14.6356 114.671 11.7798 110.77 11.7798ZM110.935 15.8849C112.748 15.8849 114.012 16.8963 114.561 18.1457L105.825 22.1318C105.44 19.0381 108.132 15.8849 110.935 15.8849ZM95.44 32.3648H99.7258V1.18988H95.44V32.3648ZM137.363 16.6584H132.089V10.9469H127.803V16.6584H122.528V21.2989H127.803V27.0104H132.089V21.2989H137.363V16.6584Z" fill="#A6A6A6"/>
</svg>
