<svg width="180" height="64" viewBox="0 0 180 64" fill="none" xmlns="http://www.w3.org/2000/svg">
<path d="M46.2047 5.19381C46.4283 10.3096 50.8045 29.8322 50.8045 29.8322C52.4125 33.7862 53.7969 29.8322 53.7969 29.8322C59.0913 13.7937 48.272 4.4995 48.272 4.4995C45.5101 2.86894 46.2047 5.19381 46.2047 5.19381M109.023 2.40642C109.023 2.40642 114.32 6.12515 109.023 6.82192C109.023 6.82192 89.2323 9.14539 74.5062 23.0956C74.5062 23.0956 52.4125 42.614 44.1305 64C44.1305 64 41.3686 64 42.2927 59.8177C43.2123 55.6343 48.7323 37.2703 73.3523 14.7275C73.3523 14.7275 97.0613 -7.12344 109.023 2.40642" fill="#FF4600"/>
<path d="M8.34048 32.8733C9.21474 33.0535 9.99971 33.1419 11.1526 33.1419C15.6665 33.1419 18.7081 30.3007 18.7081 26.6925C18.7081 23.4463 16.3587 22.2755 13.3199 22.2755C11.9805 22.2755 10.9667 22.3663 10.3223 22.5444L8.34048 32.8733ZM5.80594 18.8024C7.69568 18.3496 10.5078 18.0811 13.2722 18.0811C16.177 18.0811 19.2183 18.6649 21.2451 20.2455C23.0424 21.5982 24.1022 23.5791 24.1022 26.2888C24.1022 29.8947 22.3502 32.8289 20.1379 34.5409C17.6507 36.4802 14.0987 37.4275 10.4123 37.4275C9.30508 37.4275 8.34048 37.2903 7.51017 37.2019L5.25148 48.7026H0L5.80594 18.8024ZM38.3396 30.5253C37.7876 30.3878 37.0978 30.3007 36.1294 30.3007C31.198 30.3007 27.3262 35.7595 27.3262 40.7658C27.3262 43.062 28.2018 44.9582 30.5533 44.9582C33.0857 44.9582 36.1294 41.8936 37.1895 36.2997L38.3396 30.5253ZM36.1747 48.7026C36.1747 47.3919 36.3582 45.6356 36.5447 43.7837H36.4519C34.2403 47.8004 31.243 49.1971 28.3859 49.1971C24.3777 49.1971 21.7476 46.13 21.7476 41.712C21.7476 34.2256 27.0943 26.2421 37.5567 26.2421C39.9988 26.2421 42.6265 26.6925 44.3785 27.2337L42.0284 38.689C41.3812 41.9352 41.0136 46.0857 41.1064 48.7026H36.1747ZM74.8802 39.9977C74.8802 43.0159 76.493 45.1414 79.2584 45.1414C83.2681 45.1414 85.9421 39.7267 85.9421 35.3524C85.9421 33.0955 84.8799 30.2997 81.6566 30.2997C77.3697 30.2997 74.8798 35.8939 74.8798 39.9977M91.4722 35.3094C91.4722 42.7934 86.1705 49.1964 78.5222 49.1964C72.8506 49.1964 69.3515 45.3636 69.3515 40.1304C69.3515 32.6918 74.6503 26.2424 82.301 26.2424C88.3378 26.2424 91.4718 30.4816 91.4718 35.3094M92.4814 48.7026L95.3863 33.548C95.938 30.9317 96.2606 28.6318 96.5374 26.7393H101.334L100.826 30.6628H100.916C102.988 27.7299 105.848 26.2421 108.982 26.2421C112.206 26.2421 114.696 28.1383 114.696 32.2864C114.696 33.277 114.515 34.8095 114.283 35.8933L111.836 48.7026H106.445L108.839 36.2997C108.982 35.4886 109.119 34.5409 109.119 33.6831C109.119 31.8339 108.428 30.5253 106.308 30.5253C103.866 30.5253 100.731 33.4108 99.7635 38.5552L97.8288 48.7026H92.4814ZM128.978 30.1656C125.612 30.1656 123.402 33.0965 122.757 35.7595C128.286 35.8035 131.838 35.0821 131.838 32.4225C131.838 31.0245 130.685 30.1656 128.978 30.1656ZM134.094 47.4383C131.88 48.5651 128.888 49.1971 126.166 49.1971C119.95 49.1971 116.953 45.4561 116.953 40.0881C116.953 33.4582 121.927 26.2431 129.67 26.2431C134.094 26.2431 136.906 28.7222 136.906 32.4225C136.906 38.0581 130.871 39.8612 122.206 39.682C122.112 40.4474 122.297 41.9352 122.805 42.7931C123.681 44.2832 125.29 45.0486 127.413 45.0486C129.95 45.0486 131.974 44.4167 133.592 43.6055L134.094 47.4383ZM149.851 30.1656C146.489 30.1656 144.276 33.0965 143.63 35.7595C149.159 35.8035 152.711 35.0821 152.711 32.4225C152.711 31.0245 151.559 30.1656 149.851 30.1656M154.968 47.4383C152.758 48.5651 149.761 49.1971 147.044 49.1971C140.824 49.1971 137.826 45.4561 137.826 40.0881C137.826 33.4582 142.8 26.2431 150.544 26.2431C154.967 26.2431 157.784 28.7222 157.784 32.4225C157.784 38.0581 151.744 39.8612 143.08 39.682C142.985 40.4474 143.17 41.9352 143.678 42.7931C144.555 44.2832 146.167 45.0486 148.286 45.0486C150.823 45.0486 152.848 44.4167 154.466 43.6055L154.968 47.4383ZM158.102 48.7026L160.728 35.1719C161.327 32.0605 161.649 28.6782 161.876 26.7389H166.533C166.395 28.2267 166.259 29.7595 166.026 31.3401H166.163C167.691 28.4072 170.128 26.2421 173.172 26.2421C173.589 26.2421 174.002 26.2888 174.372 26.2888L173.309 31.4299C173.034 31.3831 172.665 31.3831 172.295 31.3831C168.467 31.3831 166.026 35.1719 165.153 39.8612L163.446 48.7026H158.102ZM178.449 28.7483H178.843C179.245 28.7483 179.512 28.5281 179.512 28.1962C179.512 27.8223 179.232 27.6584 178.829 27.6584C178.644 27.6584 178.512 27.6716 178.449 27.6858L178.449 28.7483ZM178.065 27.423C178.308 27.3833 178.554 27.3634 178.8 27.3634C179.208 27.3634 179.479 27.4447 179.658 27.6022C179.806 27.7302 179.891 27.9297 179.891 28.159C179.891 28.5366 179.648 28.7923 179.336 28.8939V28.9081C179.563 28.9847 179.696 29.1936 179.772 29.4947C179.867 29.8964 179.938 30.1795 180 30.293H179.602C179.554 30.2046 179.487 29.9597 179.412 29.5977C179.321 29.196 179.156 29.048 178.809 29.0338H178.449V30.293H178.065V27.423Z" fill="black"/>
</svg>
