<svg width="57" height="36" viewBox="0 0 57 36" fill="none" xmlns="http://www.w3.org/2000/svg">
<path d="M56.4309 8.74625L56.3602 8.35137L56.2867 8.36547C55.7841 6.41228 54.6263 4.61727 52.9473 3.18812C51.2683 1.75897 49.1367 0.754101 46.7991 0.289779C44.4615 -0.174542 42.0135 -0.0793385 39.7383 0.564376C37.4631 1.20809 35.4537 2.374 33.9426 3.92722C32.4315 5.48043 31.4805 7.35745 31.1997 9.34111C30.9188 11.3248 31.3195 13.334 32.3554 15.1363C33.3913 16.9386 35.0201 18.4603 37.0533 19.5253C39.0865 20.5904 41.4411 21.1553 43.8445 21.1546C44.4753 21.1546 45.0805 21.0747 45.683 21.0018C45.4878 21.5471 45.287 22.1019 44.9646 22.6002C44.6421 23.3241 44.1387 23.9517 43.638 24.584C43.2194 25.268 42.4812 25.731 41.9382 26.3163C41.3697 26.8851 40.5947 27.2636 39.9809 27.736C39.3785 28.2296 38.5894 28.4764 37.9614 28.8243C37.3053 29.1369 36.7339 29.4825 36.123 29.647L34.5985 30.1688L33.2578 30.6319L34.6268 35.1895L36.3153 34.851C36.8555 34.7382 37.5146 34.6066 38.2641 34.4491C39.0306 34.3316 39.848 34.0096 40.7587 33.7157C41.6553 33.3796 42.699 33.1563 43.6663 32.618C44.6393 32.1056 45.7622 31.6778 46.7521 30.9915C47.7109 30.284 48.8678 29.6705 49.7219 28.7726C50.6553 27.9311 51.5774 27.0473 52.293 26.0413C53.1217 25.0823 53.6845 24.0293 54.2785 22.988C54.8159 21.9467 55.2486 20.8819 55.6022 19.8477C56.2725 17.7746 56.5723 15.8048 56.6883 14.1195C56.7845 12.4319 56.7279 11.0286 56.6091 10.0132C56.5694 9.58912 56.5099 9.1665 56.4309 8.74625ZM25.3185 8.74625L25.2478 8.35137L25.1742 8.36547C24.6717 6.41228 23.5139 4.61727 21.8349 3.18812C20.1558 1.75897 18.0242 0.754101 15.6866 0.289779C13.349 -0.174542 10.901 -0.0793385 8.62584 0.564376C6.35065 1.20809 4.34127 2.374 2.8302 3.92722C1.31913 5.48043 0.368125 7.35745 0.087231 9.34111C-0.193663 11.3248 0.20703 13.334 1.24295 15.1363C2.27886 16.9386 3.90767 18.4603 5.94089 19.5253C7.97412 20.5904 10.3287 21.1553 12.7321 21.1546C13.3628 21.1546 13.9681 21.0747 14.5706 21.0018C14.3754 21.5471 14.1746 22.1019 13.8521 22.6002C13.5297 23.3241 13.0263 23.9517 12.5256 24.584C12.107 25.268 11.3688 25.731 10.8258 26.3163C10.2572 26.8851 9.48226 27.2636 8.8685 27.736C8.26605 28.2296 7.47693 28.4764 6.84902 28.8243C6.19283 29.1369 5.62149 29.4825 5.01056 29.647L3.48605 30.1688C2.6347 30.4579 2.14822 30.6272 2.14822 30.6272L3.51716 35.1848L5.20572 34.8463C5.74594 34.7335 6.40496 34.6019 7.15449 34.4444C7.92099 34.3269 8.73839 34.0048 9.64914 33.711C10.5457 33.3749 11.5894 33.1516 12.5567 32.6133C13.5297 32.1009 14.6526 31.6731 15.6425 30.9868C16.6014 30.2793 17.7582 29.6658 18.6123 28.7679C19.5457 27.9264 20.4678 27.0426 21.1834 26.0366C22.0121 25.0776 22.5749 24.0246 23.1689 22.9833C23.7063 21.942 24.139 20.8772 24.4926 19.843C25.1629 17.7699 25.4627 15.8001 25.5787 14.1148C25.6749 12.4272 25.6183 11.0239 25.4995 10.0085C25.4573 9.58608 25.3969 9.16507 25.3185 8.74625Z" fill="#A6A6A6"/>
</svg>
