<svg width="138" height="45" viewBox="0 0 138 45" fill="none" xmlns="http://www.w3.org/2000/svg">
<path d="M9.69827 17.6335C9.69827 16.4621 10.9249 16.0113 12.9569 16.0113C15.87 16.0113 19.5499 16.7024 22.4633 17.9341V10.8744C19.2817 9.88319 16.1385 9.49265 12.9569 9.49265C5.175 9.49265 0 12.677 0 17.9943C0 26.2851 14.5665 24.9635 14.5665 28.5384C14.5665 29.9199 13.0335 30.3707 10.8866 30.3707C7.70509 30.3707 3.64164 29.3492 0.421547 27.9674V35.117C3.98664 36.3186 7.59 36.8292 10.8866 36.8292C18.8599 36.8292 24.3416 33.7352 24.3416 28.358C24.3034 19.406 9.69827 20.998 9.69827 17.6335ZM35.6115 3.48471L26.2583 5.04668L26.22 29.1089C26.22 33.555 30.4751 36.8292 36.1485 36.8292C39.2917 36.8292 41.5916 36.3786 42.8565 35.8379V29.7398C41.6302 30.1303 35.5733 31.5121 35.5733 27.0662V16.4019H42.8565V10.0034H35.5733L35.6115 3.48471ZM54.7785 12.2263L54.165 10.0034H45.885V36.2884H55.4685V18.4748C57.7298 16.1617 61.5634 16.5822 62.7517 16.9126V10.0034C61.5251 9.64283 57.0401 8.98192 54.7785 12.2263ZM65.0899 10.0034H74.7116V36.2884H65.0899V10.0034ZM65.0899 7.7203L74.7116 6.09813V0L65.0899 1.59218V7.7203ZM94.7216 9.49265C90.9649 9.49265 88.5499 10.8744 87.2085 11.8359L86.7098 9.97338H78.2767V45L87.8599 43.408L87.8984 34.9066C89.2784 35.6877 91.3099 36.7992 94.6834 36.7992C101.545 36.7992 107.793 32.4734 107.793 22.9507C107.755 14.239 101.43 9.49265 94.7216 9.49265ZM92.4217 30.1903C90.1601 30.1903 88.8181 29.5596 87.8984 28.7785L87.8599 17.6335C88.8566 16.7624 90.2366 16.1617 92.4217 16.1617C95.91 16.1617 98.325 19.2257 98.325 23.1609C98.325 27.1863 95.9483 30.1903 92.4217 30.1903ZM138 23.2511C138 15.5608 133.247 9.49265 124.162 9.49265C115.038 9.49265 109.518 15.561 109.518 23.1911C109.518 32.233 116.035 36.7992 125.388 36.7992C129.95 36.7992 133.4 35.9881 136.007 34.8466V28.8385C133.4 29.86 130.41 30.4909 126.615 30.4909C122.897 30.4909 119.6 29.4694 119.178 25.9247H137.923C137.923 25.534 138 23.972 138 23.2511ZM119.063 20.3973C119.063 17.0028 121.708 15.5908 124.123 15.5908C126.462 15.5908 128.953 17.0028 128.953 20.3973H119.063Z" fill="#6772E5"/>
</svg>
