<svg width="101" height="43" viewBox="0 0 101 43" fill="none" xmlns="http://www.w3.org/2000/svg">
<path d="M88.1897 19.8637C88.3958 16.4957 89.2949 14.9265 90.9808 14.9265C92.6479 14.9265 93.5096 16.5339 93.622 19.8637H88.1897ZM100.534 21.873C100.534 18.1223 99.7286 15.137 98.1551 13.0511C96.5441 10.9269 94.1464 9.83616 91.0932 9.83616C84.8367 9.83616 80.9405 14.5629 80.9405 22.1409C80.9405 26.3892 81.9707 29.5659 84.0312 31.5943C85.867 33.4123 88.5082 34.3309 91.9174 34.3309C95.0643 34.3309 97.9678 33.5654 99.8035 32.3215L98.998 27.1738C97.181 28.1689 95.083 28.7239 92.7041 28.7239C91.2805 28.7239 90.3064 28.4177 89.5946 27.7862C88.8266 27.1164 88.377 26.0256 88.2272 24.4756H100.422C100.478 24.112 100.534 22.4088 100.534 21.873ZM71.0875 26.9633C70.4881 28.1115 69.5702 28.7239 68.5025 28.7239C67.7532 28.7239 67.1163 28.5708 66.5169 28.2646V17.0506C67.772 15.7111 68.8959 15.558 69.308 15.558C71.1812 15.558 72.099 17.6247 72.099 21.6434C72.099 23.9589 71.7806 25.7577 71.0875 26.9633ZM77.2128 12.4196C75.9016 10.6973 74.1033 9.83616 71.7806 9.83616C69.6451 9.83616 67.772 10.7547 66.0299 12.6492L65.6365 10.2763H59.174V42.5978L66.5357 41.354V33.7759C67.6596 34.1395 68.8209 34.3309 69.8512 34.3309C71.6869 34.3309 74.3656 33.8525 76.4448 31.5369C78.4304 29.3171 79.4419 25.8917 79.4419 21.3755C79.4232 17.3759 78.6926 14.3524 77.2128 12.4196ZM48.8715 10.2954H56.2518V33.8907H48.8715V10.2954ZM52.5804 7.96078C54.7158 7.96078 56.4392 6.18109 56.4392 3.98039C56.4392 1.76056 54.7158 0 52.5804 0C50.4075 0 48.6842 1.76056 48.6842 3.98039C48.7029 6.16195 50.4262 7.96078 52.5804 7.96078ZM45.7058 9.97011C43.6266 9.97011 41.9594 11.08 41.3225 13.0894L40.873 10.2954H34.4292V33.8907H41.7908V18.5815C42.7087 17.4333 44.0199 17.0123 45.7995 17.0123C46.1928 17.0123 46.6049 17.0123 47.1107 17.108V10.1423C46.5862 10.0275 46.1366 9.97011 45.7058 9.97011ZM31.582 15.8642L32.4811 10.2763H27.7794V3.52111L21.4667 4.59276L20.5489 10.2954L18.3198 10.659L17.4956 15.8642H20.5489V26.8102C20.5489 29.6616 21.2607 31.6326 22.7218 32.8382C23.9393 33.8333 25.6814 34.3309 28.154 34.3309C30.0459 34.3309 31.2073 34.0055 32.0128 33.7759V27.8627C31.5632 27.9776 30.5517 28.1881 29.8774 28.1881C28.4163 28.1881 27.7981 27.4226 27.7981 25.7003V15.8642H31.582ZM10.5086 19.1748C8.33569 18.3519 7.15558 17.7204 7.15558 16.7253C7.15558 15.8833 7.82993 15.3857 9.0475 15.3857C11.2766 15.3857 13.5619 16.266 15.1354 17.0506L16.0345 11.4436C14.7795 10.8313 12.2319 9.83616 8.71033 9.83616C6.21899 9.83616 4.13975 10.5059 2.65993 11.7498C1.10518 13.0511 0.29971 14.9265 0.29971 17.2037C0.29971 21.3181 2.75359 23.0786 6.76221 24.5713C9.34721 25.5089 10.2089 26.1787 10.2089 27.2121C10.2089 28.2072 9.38467 28.7813 7.86739 28.7813C5.9942 28.7813 2.90344 27.8436 0.89913 26.638L0 32.3024C1.72333 33.2975 4.92649 34.3309 8.24203 34.3309C10.8832 34.3309 13.0749 33.6994 14.5547 32.4746C16.2218 31.1351 17.0835 29.164 17.0835 26.6189C17.0835 22.4088 14.5734 20.6483 10.5086 19.1748Z" fill="#A6A6A6"/>
</svg>
