<svg width="102" height="36" viewBox="0 0 102 36" fill="none" xmlns="http://www.w3.org/2000/svg">
<path d="M5.84133 25.1319C6.27038 26.2687 6.8644 27.2407 7.62348 28.0479C8.38257 28.8552 9.28186 29.4729 10.3214 29.9013C11.361 30.3297 12.4913 30.5438 13.7124 30.5438C14.9005 30.5438 16.0143 30.3214 17.0539 29.8765C18.0935 29.4316 19.001 28.8056 19.7765 27.9984C20.552 27.1911 21.1543 26.2275 21.5834 25.1072C22.0125 23.9869 22.2269 22.7349 22.2269 21.351V0H27.4247V34.5965H22.2764V31.3839C21.1214 32.6029 19.76 33.542 18.1924 34.2011C16.6247 34.86 14.9335 35.1895 13.1184 35.1895C11.2702 35.1895 9.54584 34.8682 7.94519 34.2257C6.34465 33.5832 4.95847 32.669 3.78699 31.4828C2.6155 30.2965 1.69134 28.8717 1.01485 27.2077C0.338247 25.5437 0 23.6904 0 21.6475V0H5.19781V21.351C5.19781 22.7349 5.41228 23.9951 5.84133 25.1319ZM36.3843 0V12.603C37.5394 11.4498 38.8761 10.5355 40.3941 9.86C41.9122 9.18448 43.5623 8.84678 45.3444 8.84678C47.1926 8.84678 48.925 9.19269 50.5422 9.88461C52.1593 10.5765 53.5618 11.5156 54.7499 12.7018C55.938 13.8881 56.8786 15.2883 57.5717 16.9028C58.2647 18.5174 58.6111 20.2307 58.6111 22.0429C58.6111 23.855 58.2647 25.5601 57.5717 27.1581C56.8786 28.7562 55.938 30.1483 54.7499 31.3344C53.5618 32.5206 52.1593 33.4597 50.5422 34.1516C48.925 34.8435 47.1925 35.1894 45.3444 35.1894C43.5622 35.1894 41.904 34.8517 40.3694 34.1762C38.8348 33.5008 37.4899 32.5864 36.3348 31.4332V34.5963H31.3846V0H36.3843ZM36.9536 25.4531C37.3991 26.5075 38.018 27.4301 38.81 28.2209C39.6021 29.0117 40.5261 29.6377 41.5821 30.099C42.6383 30.5603 43.7768 30.7909 44.9979 30.7909C46.186 30.7909 47.308 30.5603 48.3641 30.099C49.4201 29.6377 50.3358 29.0118 51.1115 28.2209C51.8871 27.4302 52.5058 26.5075 52.9679 25.4531C53.4299 24.3987 53.6609 23.2621 53.6609 22.0429C53.6609 20.8238 53.4299 19.6788 52.9679 18.6079C52.5058 17.5371 51.8871 16.6063 51.1115 15.8155C50.3359 15.0249 49.4202 14.407 48.3641 13.9622C47.3079 13.5174 46.1859 13.2949 44.9979 13.2949C43.8099 13.2949 42.6878 13.5173 41.6318 13.9622C40.5757 14.4071 39.6517 15.0249 38.8595 15.8155C38.0676 16.6063 37.4405 17.5371 36.9785 18.6079C36.5164 19.6788 36.2854 20.8238 36.2854 22.0429C36.2853 23.2621 36.5081 24.3987 36.9536 25.4531V25.4531ZM61.4324 16.9523C62.0923 15.3708 63 13.9787 64.155 12.7761C65.3099 11.5735 66.6797 10.6262 68.2638 9.93426C69.8479 9.24234 71.564 8.89643 73.4121 8.89643C75.2272 8.89643 76.9103 9.22593 78.4615 9.88483C80.0125 10.5438 81.3491 11.4582 82.4711 12.6279C83.5932 13.7975 84.4679 15.1815 85.0948 16.7794C85.7218 18.3775 86.0353 20.1156 86.0353 21.9937V23.6247H65.4916C65.6567 24.6461 65.9868 25.5934 66.4817 26.4664C66.9768 27.3395 67.5955 28.0974 68.3381 28.7399C69.0806 29.3825 69.9222 29.885 70.8627 30.2473C71.8033 30.6097 72.8015 30.7911 73.8577 30.7911C76.8609 30.7911 79.2866 29.5554 81.1347 27.0842L84.7484 29.753C83.4943 31.4334 81.9433 32.7514 80.0952 33.7069C78.247 34.6624 76.1679 35.1402 73.8578 35.1402C71.9766 35.1402 70.2193 34.8106 68.5857 34.1517C66.9521 33.4928 65.5331 32.5701 64.3285 31.3839C63.1239 30.1977 62.1751 28.8056 61.4821 27.2077C60.7891 25.6097 60.4425 23.8715 60.4425 21.9935C60.4423 20.2143 60.7724 18.5339 61.4324 16.9523V16.9523ZM68.3876 15C66.985 16.1697 66.0527 17.7266 65.5907 19.6706H80.9862C80.5571 17.7266 79.6413 16.1697 78.2387 15C76.8361 13.8304 75.1942 13.2456 73.3132 13.2456C71.432 13.2456 69.7902 13.8304 68.3876 15V15ZM95.3911 15.5684C94.3351 16.7216 93.807 18.2866 93.807 20.2636V34.5966H88.8071V9.39052H93.7574V12.5042C94.3845 11.4828 95.2013 10.6755 96.2078 10.0824C97.2144 9.48927 98.4107 9.19269 99.7969 9.19269H101.529V13.8385H99.4503C97.8003 13.8386 96.4472 14.4152 95.3911 15.5684Z" fill="#A6A6A6"/>
</svg>
