<svg width="24" height="24" viewBox="0 0 24 24" fill="none" xmlns="http://www.w3.org/2000/svg">
<path d="M7.63415 2.1741C6.33127 1.84452 4.96574 1.98434 3.89587 2.58107C2.80596 3.1878 2.04177 4.26391 2.00418 5.70331C1.94655 7.95292 2.46896 10.9715 4.54356 14.5145C6.59184 18.0138 8.8531 20.1111 10.7298 21.357C11.9149 22.1447 13.224 22.1659 14.3428 21.6528C15.4452 21.1472 16.3397 20.1373 16.8045 18.8851C16.9201 18.5737 16.9666 18.241 16.9407 17.9099C16.9147 17.5788 16.8169 17.2573 16.6541 16.9676L15.459 14.8428C15.0916 14.1889 14.5003 13.6885 13.7932 13.4331C13.0862 13.1778 12.3105 13.1845 11.608 13.4521L10.7736 13.7705C10.369 13.924 9.99689 13.8528 9.78642 13.6456C9.0786 12.9528 8.57248 12.0127 8.34322 10.999C8.27056 10.6794 8.41839 10.3024 8.77167 10.0365L9.52459 9.46973C10.1333 9.01202 10.5535 8.34874 10.7064 7.6043C10.8593 6.85986 10.7344 6.0854 10.3552 5.42617L9.13748 3.31014C8.97616 3.02999 8.75994 2.78505 8.50167 2.58988C8.24341 2.39471 7.94838 2.25331 7.63415 2.1741V2.1741ZM3.25696 5.73702C3.28201 4.77076 3.7731 4.0804 4.50723 3.67092C5.2614 3.25022 6.29118 3.12163 7.32597 3.38379C7.4776 3.42196 7.61996 3.49015 7.74458 3.5843C7.8692 3.67846 7.97352 3.79665 8.05133 3.93184L9.26777 6.04787C9.49529 6.44324 9.5703 6.90773 9.47875 7.35428C9.38719 7.80082 9.13534 8.19876 8.77042 8.47351L8.0175 9.04028C7.36606 9.52965 6.91506 10.3686 7.12052 11.2737C7.39863 12.4996 8.01374 13.6618 8.90823 14.537C9.56217 15.1761 10.4942 15.2136 11.2208 14.9365L12.0552 14.6181C12.4767 14.4573 12.9423 14.4531 13.3667 14.6062C13.7911 14.7593 14.146 15.0596 14.3666 15.452L15.5605 17.5781C15.7108 17.8452 15.7359 18.1648 15.6294 18.4519C15.2661 19.4319 14.5833 20.1672 13.8191 20.518C13.0712 20.8613 12.2256 20.8514 11.4251 20.3183C9.7075 19.1773 7.57903 17.221 5.6247 13.8853C3.66912 10.5396 3.20559 7.75068 3.25821 5.73702H3.25696ZM15.4114 2.10668C15.2662 2.02623 15.0949 2.00654 14.9351 2.05196C14.7753 2.09738 14.6402 2.20418 14.5595 2.34887C14.4788 2.49356 14.459 2.66429 14.5046 2.82349C14.5502 2.98269 14.6573 3.11733 14.8025 3.19778L15.2836 3.46494C16.7864 4.29688 18.0648 5.47904 19.0095 6.9104C19.9541 8.34175 20.5369 9.97974 20.7081 11.6844L20.7482 12.0776C20.7529 12.1618 20.7747 12.2441 20.8123 12.3197C20.8498 12.3952 20.9023 12.4624 20.9666 12.5172C21.0309 12.572 21.1057 12.6132 21.1864 12.6384C21.2671 12.6636 21.3521 12.6722 21.4363 12.6638C21.5205 12.6554 21.6021 12.63 21.6761 12.5893C21.7502 12.5486 21.8152 12.4933 21.8673 12.4269C21.9194 12.3605 21.9574 12.2842 21.9791 12.2027C22.0008 12.1212 22.0057 12.0362 21.9935 11.9528L21.9546 11.5608C21.7635 9.65523 21.1121 7.82413 20.0562 6.22404C19.0003 4.62396 17.5712 3.30248 15.8912 2.37259L15.4114 2.10668V2.10668ZM13.9431 5.45239C14.0287 5.31053 14.1673 5.20836 14.3285 5.16832C14.4896 5.12829 14.6602 5.15368 14.8025 5.23891L14.9579 5.33129C15.9691 5.93546 16.8366 6.75125 17.5005 7.72227C18.1643 8.6933 18.6086 9.7964 18.8026 10.9553L18.8578 11.2886C18.8735 11.3704 18.8727 11.4544 18.8554 11.5359C18.8381 11.6173 18.8046 11.6944 18.7569 11.7628C18.7092 11.8311 18.6483 11.8893 18.5778 11.9338C18.5072 11.9783 18.4284 12.0083 18.346 12.0221C18.2636 12.0358 18.1793 12.033 18.0981 12.0138C18.0168 11.9946 17.9402 11.9594 17.8728 11.9102C17.8054 11.8611 17.7485 11.799 17.7055 11.7276C17.6625 11.6562 17.6343 11.577 17.6225 11.4946L17.5662 11.1613C17.4022 10.1809 17.0266 9.24758 16.4654 8.42594C15.9041 7.6043 15.1704 6.91389 14.3152 6.40242L14.1599 6.30879C14.0893 6.26666 14.0277 6.2111 13.9787 6.14526C13.9296 6.07942 13.8941 6.0046 13.8741 5.92507C13.8541 5.84554 13.85 5.76286 13.862 5.68176C13.8741 5.60065 13.9021 5.52271 13.9444 5.45239H13.9431Z" fill="black"/>
</svg>
