<svg width="24" height="24" viewBox="0 0 24 24" fill="none" xmlns="http://www.w3.org/2000/svg">
<path d="M2 2.66667C2 2.48986 2.07024 2.32029 2.19527 2.19526C2.3203 2.07024 2.48987 2 2.66669 2H4.66675C4.81546 2.00004 4.95989 2.0498 5.07707 2.14137C5.19425 2.23293 5.27745 2.36105 5.31344 2.50533L5.85345 4.66667H21.3339C21.4318 4.66676 21.5285 4.6884 21.6171 4.73007C21.7057 4.77173 21.784 4.83239 21.8465 4.90774C21.909 4.98308 21.9541 5.07127 21.9787 5.16602C22.0032 5.26078 22.0066 5.35978 21.9886 5.456L19.9886 16.1227C19.96 16.2754 19.8789 16.4134 19.7593 16.5127C19.6398 16.6121 19.4893 16.6665 19.3339 16.6667H7.3335C7.17807 16.6665 7.02758 16.6121 6.90803 16.5127C6.78849 16.4134 6.70741 16.2754 6.67881 16.1227L4.68008 5.476L4.14673 3.33333H2.66669C2.48987 3.33333 2.3203 3.2631 2.19527 3.13807C2.07024 3.01305 2 2.84348 2 2.66667ZM6.13613 6L7.88685 15.3333H18.7805L20.5312 6H6.13613ZM8.66687 16.6667C7.95961 16.6667 7.28131 16.9476 6.7812 17.4477C6.28108 17.9478 6.00012 18.6261 6.00012 19.3333C6.00012 20.0406 6.28108 20.7189 6.7812 21.219C7.28131 21.719 7.95961 22 8.66687 22C9.37414 22 10.0524 21.719 10.5525 21.219C11.0527 20.7189 11.3336 20.0406 11.3336 19.3333C11.3336 18.6261 11.0527 17.9478 10.5525 17.4477C10.0524 16.9476 9.37414 16.6667 8.66687 16.6667ZM18.0005 16.6667C17.2932 16.6667 16.6149 16.9476 16.1148 17.4477C15.6147 17.9478 15.3337 18.6261 15.3337 19.3333C15.3337 20.0406 15.6147 20.7189 16.1148 21.219C16.6149 21.719 17.2932 22 18.0005 22C18.7078 22 19.3861 21.719 19.8862 21.219C20.3863 20.7189 20.6672 20.0406 20.6672 19.3333C20.6672 18.6261 20.3863 17.9478 19.8862 17.4477C19.3861 16.9476 18.7078 16.6667 18.0005 16.6667ZM8.66687 18C9.02051 18 9.35965 18.1405 9.60971 18.3905C9.85977 18.6406 10.0002 18.9797 10.0002 19.3333C10.0002 19.687 9.85977 20.0261 9.60971 20.2761C9.35965 20.5262 9.02051 20.6667 8.66687 20.6667C8.31324 20.6667 7.97409 20.5262 7.72403 20.2761C7.47398 20.0261 7.3335 19.687 7.3335 19.3333C7.3335 18.9797 7.47398 18.6406 7.72403 18.3905C7.97409 18.1405 8.31324 18 8.66687 18ZM18.0005 18C18.3541 18 18.6933 18.1405 18.9433 18.3905C19.1934 18.6406 19.3339 18.9797 19.3339 19.3333C19.3339 19.687 19.1934 20.0261 18.9433 20.2761C18.6933 20.5262 18.3541 20.6667 18.0005 20.6667C17.6469 20.6667 17.3077 20.5262 17.0577 20.2761C16.8076 20.0261 16.6671 19.687 16.6671 19.3333C16.6671 18.9797 16.8076 18.6406 17.0577 18.3905C17.3077 18.1405 17.6469 18 18.0005 18V18Z" fill="black"/>
</svg>
