<svg width="24" height="24" viewBox="0 0 24 24" fill="none" xmlns="http://www.w3.org/2000/svg">
<path d="M19.7239 3.2953C19.5101 3.13148 19.2655 3.03237 19.0118 3.00669C18.758 2.98101 18.5029 3.02953 18.2687 3.148L10.5945 6.72724C10.4128 6.8148 10.2185 6.85982 10.0224 6.8598H5.10945C4.69711 6.8598 4.30166 7.05378 4.0101 7.39907C3.71853 7.74436 3.55473 8.21267 3.55473 8.70097V8.84827H2V13.2671H3.55473V13.4586C3.56447 13.9392 3.73256 14.3962 4.02308 14.732C4.3136 15.0678 4.7035 15.2557 5.10945 15.2555L6.97512 19.9395C7.10146 20.2549 7.30035 20.5217 7.54896 20.7093C7.79757 20.8969 8.08582 20.9977 8.3806 21H9.16418C9.57436 20.9961 9.96662 20.8004 10.2555 20.4556C10.5444 20.1107 10.7065 19.6446 10.7065 19.1588V15.4323L18.2687 19.0115C18.4547 19.0992 18.653 19.1442 18.8532 19.1441C19.1638 19.1382 19.4663 19.0256 19.7239 18.8201C19.9285 18.6565 20.0972 18.4376 20.2162 18.1814C20.3351 17.9253 20.4009 17.6393 20.408 17.3471V4.81242C20.4068 4.5127 20.3439 4.21784 20.2247 3.95345C20.1055 3.68906 19.9336 3.46314 19.7239 3.2953V3.2953ZM9.15174 8.70097V13.4586H5.10945V8.70097H9.15174ZM9.15174 19.1588H8.36816L6.83831 15.2555H9.15174V19.1588ZM11.1667 13.6795C11.019 13.5901 10.865 13.5162 10.7065 13.4586V8.59787C10.8635 8.5595 11.0174 8.5053 11.1667 8.43585L18.8532 4.81242V17.3029L11.1667 13.6795ZM20.4453 9.2165V12.8988C20.8576 12.8988 21.2531 12.7049 21.5446 12.3596C21.8362 12.0143 22 11.546 22 11.0577C22 10.5694 21.8362 10.1011 21.5446 9.75577C21.2531 9.41048 20.8576 9.2165 20.4453 9.2165V9.2165Z" fill="black"/>
</svg>
