<svg width="24" height="24" viewBox="0 0 24 24" fill="none" xmlns="http://www.w3.org/2000/svg">
<rect width="24" height="24" fill="white" fill-opacity="0.01"/>
<path d="M6.81218 9.00411H2.89274C2.76281 9.00411 2.63819 9.05677 2.54631 9.15051C2.45443 9.24425 2.40282 9.37138 2.40282 9.50395V21.5002C2.40282 21.6327 2.45443 21.7599 2.54631 21.8536C2.63819 21.9473 2.76281 22 2.89274 22H6.81218C6.94212 22 7.06673 21.9473 7.15861 21.8536C7.25049 21.7599 7.30211 21.6327 7.30211 21.5002V9.50395C7.30211 9.37138 7.25049 9.24425 7.15861 9.15051C7.06673 9.05677 6.94212 9.00411 6.81218 9.00411ZM6.32225 21.0003H3.38267V10.0038H6.32225V21.0003ZM17.1007 9.00411C16.0376 9.00411 15.0038 9.36199 14.1611 10.0228V9.50395C14.1611 9.37138 14.1095 9.24425 14.0176 9.15051C13.9257 9.05677 13.8011 9.00411 13.6712 9.00411H9.75176C9.62182 9.00411 9.49721 9.05677 9.40533 9.15051C9.31345 9.24425 9.26183 9.37138 9.26183 9.50395V21.5002C9.26183 21.6327 9.31345 21.7599 9.40533 21.8536C9.49721 21.9473 9.62182 22 9.75176 22H13.6712C13.8011 22 13.9257 21.9473 14.0176 21.8536C14.1095 21.7599 14.1611 21.6327 14.1611 21.5002V16.0019C14.1611 15.6042 14.316 15.2228 14.5916 14.9416C14.8673 14.6604 15.2411 14.5024 15.6309 14.5024C16.0207 14.5024 16.3946 14.6604 16.6702 14.9416C16.9459 15.2228 17.1007 15.6042 17.1007 16.0019V21.5002C17.1007 21.6327 17.1523 21.7599 17.2442 21.8536C17.3361 21.9473 17.4607 22 17.5906 22H21.5101C21.64 22 21.7646 21.9473 21.8565 21.8536C21.9484 21.7599 22 21.6327 22 21.5002V14.0025C21.9984 12.6774 21.4818 11.4069 20.5633 10.4699C19.6449 9.53282 18.3996 9.00569 17.1007 9.00411V9.00411ZM21.0201 21.0003H18.0806V16.0019C18.0806 15.3391 17.8225 14.7034 17.3631 14.2347C16.9037 13.766 16.2806 13.5027 15.6309 13.5027C14.9812 13.5027 14.3581 13.766 13.8988 14.2347C13.4394 14.7034 13.1813 15.3391 13.1813 16.0019V21.0003H10.2417V10.0038H13.1813V11.2064C13.1812 11.3099 13.2127 11.4109 13.2714 11.4954C13.33 11.5799 13.4129 11.6437 13.5087 11.6781C13.6044 11.7124 13.7082 11.7156 13.8058 11.6871C13.9033 11.6587 13.9898 11.6001 14.0533 11.5193C14.5565 10.8686 15.2462 10.3943 16.0262 10.1626C16.8062 9.93082 17.6377 9.95319 18.4046 10.2266C19.1715 10.4999 19.8358 11.0107 20.3046 11.6875C20.7735 12.3644 21.0236 13.1737 21.0201 14.0025V21.0003ZM5.21305 2.00832C5.09792 2.00004 4.98238 1.99937 4.86716 2.00632C4.50047 1.98086 4.13255 2.03249 3.78621 2.15801C3.43987 2.28353 3.12248 2.48026 2.8537 2.73602C2.58492 2.99177 2.37047 3.30111 2.22364 3.64487C2.07681 3.98863 2.00072 4.35948 2.00009 4.73446C1.99705 5.10552 2.06876 5.47326 2.21076 5.81488C2.35277 6.1565 2.56206 6.46472 2.82564 6.72041C3.08922 6.97611 3.40147 7.17384 3.74305 7.30134C4.08462 7.42883 4.44822 7.48338 4.81131 7.46159H4.83875C5.18971 7.48667 5.54208 7.44097 5.87574 7.32711C6.20939 7.21325 6.5178 7.03346 6.78335 6.798C7.0489 6.56253 7.26639 6.27602 7.42341 5.9548C7.58042 5.63359 7.67389 5.28396 7.69846 4.9259C7.72304 4.56783 7.67825 4.20833 7.56665 3.86792C7.45504 3.52752 7.27882 3.21287 7.04802 2.94195C6.81723 2.67102 6.5364 2.44913 6.22155 2.28894C5.90671 2.12875 5.56402 2.03339 5.21305 2.00832V2.00832ZM5.17876 6.46491C5.0656 6.47541 4.95171 6.4744 4.83875 6.46191H4.81131C4.57549 6.48 4.33856 6.44772 4.11565 6.36713C3.89274 6.28654 3.68875 6.15942 3.5167 5.99388C3.34466 5.82834 3.20833 5.62802 3.11644 5.40571C3.02454 5.18339 2.97909 4.94397 2.98299 4.70273C2.98689 4.46149 3.04005 4.22373 3.13908 4.00463C3.23811 3.78552 3.38083 3.5899 3.55813 3.43023C3.73544 3.27057 3.94342 3.15038 4.16881 3.07733C4.39421 3.00429 4.63205 2.97999 4.86716 3.006C5.31674 2.96385 5.76433 3.10563 6.11145 3.40015C6.45857 3.69468 6.67679 4.11783 6.71811 4.57651C6.75943 5.03519 6.62047 5.49183 6.33178 5.84597C6.04309 6.20011 5.62834 6.42275 5.17876 6.46491V6.46491Z" fill="black"/>
</svg>
