<svg width="24" height="24" viewBox="0 0 24 24" fill="none" xmlns="http://www.w3.org/2000/svg">
<path d="M2.71428 3H21.2857C21.6808 3 22 3.36562 22 3.81818V20.1818C22 20.6344 21.6808 21 21.2857 21H2.71428C2.3192 21 2 20.6344 2 20.1818V3.81818C2 3.36562 2.3192 3 2.71428 3ZM3.60714 5.83295V19.1591H20.3929V5.83295L21.0089 5.28324L20.1317 3.99205L19.1763 4.84347H4.82143L3.86607 3.99205L2.98884 5.28324L3.60714 5.83295ZM4.82143 4.84091L12 11.233L19.1786 4.84091L20.1339 3.98949L21.0112 5.28068L20.3951 5.8304L12.7701 12.6213C12.5508 12.8164 12.281 12.9224 12.0033 12.9224C11.7257 12.9224 11.4559 12.8164 11.2366 12.6213L3.60714 5.83295L2.99107 5.28324L3.8683 3.99205L4.82143 4.84091Z" fill="black"/>
</svg>
