<svg width="24" height="24" viewBox="0 0 24 24" fill="none" xmlns="http://www.w3.org/2000/svg">
<rect width="24" height="24" fill="white" fill-opacity="0.01"/>
<path d="M11.871 13.9597L11.8714 13.9592C12.3529 13.2896 12.5 12.529 12.5 12V10.6798C12.5465 10.8029 12.6105 10.92 12.6909 11.0273L13.4205 12L12.6909 12.9727C12.4667 13.2717 12.3704 13.6475 12.4233 14.0175C12.4761 14.3874 12.6738 14.7212 12.9727 14.9455C13.2717 15.1697 13.6475 15.266 14.0175 15.2131C14.3874 15.1603 14.7212 14.9626 14.9454 14.6637C14.9454 14.6637 14.9454 14.6637 14.9455 14.6636L15.1818 14.3486L15.4182 14.6636C15.4182 14.6637 15.4182 14.6637 15.4182 14.6637C15.6425 14.9626 15.9762 15.1603 16.3462 15.2131C16.5294 15.2393 16.7159 15.2291 16.8952 15.1832C17.0744 15.1373 17.2429 15.0565 17.3909 14.9455C17.5389 14.8344 17.6637 14.6953 17.7579 14.5361C17.8522 14.3769 17.9142 14.2006 17.9404 14.0175C17.9666 13.8343 17.9564 13.6477 17.9105 13.4685C17.8645 13.2892 17.7838 13.1208 17.6727 12.9727L16.9432 12L17.6727 11.0273C17.897 10.7283 17.9932 10.3525 17.9404 9.98254C17.8875 9.61258 17.6899 9.27877 17.3909 9.05455C17.2429 8.94352 17.0744 8.86274 16.8952 8.81681C16.7159 8.77089 16.5294 8.76072 16.3462 8.78689C15.9762 8.83974 15.6424 9.03739 15.4182 9.33636L15.1818 9.6514L14.9455 9.33636C14.7212 9.03739 14.3874 8.83974 14.0175 8.78689C13.6475 8.73404 13.2717 8.83032 12.9727 9.05455C12.7164 9.24682 12.5345 9.51968 12.4545 9.8268C12.3919 9.58619 12.2661 9.36426 12.0873 9.18544C11.823 8.92119 11.4646 8.77273 11.0909 8.77273C10.7172 8.77273 10.3588 8.92119 10.0945 9.18544C9.83028 9.4497 9.68182 9.8081 9.68182 10.1818V12C9.68182 12.0274 9.67605 12.0846 9.65663 12.1524C9.63732 12.2197 9.61088 12.2752 9.58405 12.3123L9.58274 12.3141C9.56394 12.3403 9.54887 12.3545 9.52465 12.367C9.49737 12.381 9.42617 12.4091 9.27273 12.4091C9.11929 12.4091 9.04808 12.381 9.02081 12.367C8.99825 12.3554 8.98363 12.3423 8.96655 12.3194C8.90274 12.2224 8.8671 12.1097 8.86364 11.9936V10.1818C8.86364 9.8081 8.71518 9.4497 8.45092 9.18544C8.18667 8.92119 7.82826 8.77273 7.45455 8.77273C7.08083 8.77273 6.72242 8.92119 6.45817 9.18544C6.19391 9.4497 6.04545 9.8081 6.04545 10.1818V12C6.04545 12.528 6.19252 13.2895 6.67406 13.9592C7.20882 14.703 8.08647 15.2273 9.27273 15.2273C10.4596 15.2273 11.3367 14.7007 11.871 13.9597ZM2.5 12C2.5 6.75342 6.75342 2.5 12 2.5C17.2466 2.5 21.5 6.75342 21.5 12C21.5 17.2466 17.2466 21.5 12 21.5C6.75342 21.5 2.5 17.2466 2.5 12Z" stroke="black"/>
</svg>
