<svg width="24" height="24" viewBox="0 0 24 24" fill="none" xmlns="http://www.w3.org/2000/svg">
<path d="M21.5354 3.67662L20.3249 2.46615C20.179 2.31848 20.0053 2.20124 19.8137 2.12122C19.6222 2.0412 19.4167 2 19.2091 2C19.0016 2 18.7961 2.0412 18.6045 2.12122C18.413 2.20124 18.2393 2.31848 18.0934 2.46615L12.5273 8.03327V11.4742H15.9693L21.5354 5.9081C21.683 5.76222 21.8003 5.58849 21.8803 5.39696C21.9603 5.20543 22.0015 4.99993 22.0015 4.79236C22.0015 4.58479 21.9603 4.37929 21.8803 4.18776C21.8003 3.99623 21.683 3.8225 21.5354 3.67662V3.67662ZM15.242 9.84266H14.1578V8.7585L17.7903 5.13024L18.8744 6.2144L15.242 9.84266Z" fill="black"/>
<path d="M18.8413 19.8951H4.10517V5.15888H10.4207V3.05371H4.10517C3.54736 3.05538 3.01286 3.27771 2.61843 3.67214C2.22399 4.06658 2.00167 4.60107 2 5.15888V19.8951C2.00167 20.4529 2.22399 20.9874 2.61843 21.3818C3.01286 21.7762 3.54736 21.9986 4.10517 22.0002H18.8413C19.3992 21.9986 19.9336 21.7762 20.3281 21.3818C20.7225 20.9874 20.9448 20.4529 20.9465 19.8951V13.5796H18.8413V19.8951Z" fill="black"/>
</svg>
