<svg width="24" height="24" viewBox="0 0 24 24" fill="none" xmlns="http://www.w3.org/2000/svg">
<path d="M21.556 5.81481C21.4421 5.26962 21.2189 4.77252 20.9089 4.37329C20.5989 3.97406 20.2129 3.6867 19.7895 3.53997C18.6325 2.96433 7.42359 2.68231 4.17161 3.55606C3.74819 3.70285 3.36214 3.99031 3.05212 4.38966C2.7421 4.78901 2.51898 5.28624 2.40512 5.83156C1.88262 8.78249 1.84312 15.1621 2.41812 18.1794C2.53206 18.7246 2.75521 19.2216 3.06522 19.6209C3.37524 20.0201 3.76125 20.3075 4.18461 20.4542C6.4761 21.1335 17.37 21.2288 19.8025 20.4542C20.2259 20.3075 20.6119 20.0201 20.9219 19.6209C21.2319 19.2216 21.4551 18.7246 21.569 18.1794C22.126 14.9644 22.1655 8.98016 21.556 5.81481V5.81481Z" stroke="black" stroke-linecap="round" stroke-linejoin="round"/>
<path d="M17.447 11.9925L7 6.60059V17.3844L17.447 11.9925Z" stroke="black" stroke-linecap="round" stroke-linejoin="round"/>
</svg>
